<svg width="30" height="26" viewBox="0 0 30 26" fill="none" xmlns="http://www.w3.org/2000/svg">
  <path d="M15.3462 24V3.375M15.3462 24L18.6299 22.6956C18.7474 22.649 18.8726 22.625 18.999 22.625H27.5C28.0523 22.625 28.5 22.1773 28.5 21.625V3C28.5 2.44772 28.0523 2 27.5 2H18.999C18.8726 2 18.7474 2.02397 18.6299 2.07064L15.3462 3.375M15.3462 24L12.787 22.7293C12.6488 22.6607 12.4966 22.625 12.3423 22.625H2.5C1.94771 22.625 1.5 22.1773 1.5 21.625V3C1.5 2.44772 1.94772 2 2.5 2H11.6933C11.8197 2 11.945 2.02397 12.0624 2.07064L15.3462 3.375"
        stroke="black"
        stroke-width="2"
        stroke-linejoin="round"
        stroke-linecap="round"/>
</svg>
